P3
15 50
255
255 255 150
0 255 0
100 100 100
0 0 255
0 150 255
255 0 255
0 0 150
150 150 0
255 255 0
50 50 255
255 50 50
255 0 0
80 164 235
124 231 97
174 91 25
255 255 150
0 255 0
100 100 100
0 0 255
0 150 255
255 0 255
0 0 150
150 150 0
255 255 0
50 50 255
255 50 50
255 0 0
80 164 235
124 231 97
174 91 25
255 255 150
0 255 0
100 100 100
0 0 255
0 150 255
255 0 255
0 0 150
150 150 0
255 255 0
50 50 255
255 50 50
255 0 0
80 164 235
124 231 97
174 91 25
255 255 150
0 255 0
100 100 100
0 0 255
0 150 255
255 0 255
0 0 150
150 150 0
255 255 0
50 50 255
255 50 50
255 0 0
80 164 235
124 231 97
174 91 25
255 255 150
0 255 0
100 100 100
0 0 255
0 150 255
255 0 255
0 0 150
150 150 0
255 255 0
50 50 255
255 50 50
255 0 0
80 164 235
124 231 97
174 91 25
255 255 150
0 255 0
100 100 100
0 0 255
0 150 255
255 0 255
0 0 150
150 150 0
255 255 0
50 50 255
255 50 50
255 0 0
80 164 235
124 231 97
174 91 25
255 255 150
0 255 0
100 100 100
0 0 255
0 150 255
255 0 255
0 0 150
150 150 0
255 255 0
50 50 255
255 50 50
255 0 0
80 164 235
124 231 97
174 91 25
255 255 150
0 255 0
100 100 100
0 0 255
0 150 255
255 0 255
0 0 150
150 150 0
255 255 0
50 50 255
255 50 50
255 0 0
80 164 235
124 231 97
174 91 25
255 255 150
0 255 0
100 100 100
0 0 255
0 150 255
255 0 255
0 0 150
150 150 0
255 255 0
50 50 255
255 50 50
255 0 0
80 164 235
124 231 97
174 91 25
255 255 150
0 255 0
100 100 100
0 0 255
0 150 255
255 0 255
0 0 150
150 150 0
255 255 0
50 50 255
255 50 50
255 0 0
80 164 235
124 231 97
174 91 25
255 255 150
0 255 0
100 100 100
0 0 255
0 150 255
255 0 255
0 0 150
150 150 0
255 255 0
50 50 255
255 50 50
255 0 0
80 164 235
124 231 97
174 91 25
255 255 150
0 255 0
100 100 100
0 0 255
0 150 255
255 0 255
0 0 150
150 150 0
255 255 0
50 50 255
255 50 50
255 0 0
80 164 235
124 231 97
174 91 25
255 255 150
0 255 0
100 100 100
0 0 255
0 150 255
255 0 255
0 0 150
150 150 0
255 255 0
50 50 255
255 50 50
255 0 0
80 164 235
124 231 97
174 91 25
255 255 150
0 255 0
100 100 100
0 0 255
0 150 255
255 0 255
0 0 150
150 150 0
255 255 0
50 50 255
255 50 50
255 0 0
80 164 235
124 231 97
174 91 25
255 255 150
0 255 0
100 100 100
0 0 255
0 150 255
255 0 255
0 0 150
150 150 0
255 255 0
50 50 255
255 50 50
255 0 0
80 164 235
124 231 97
174 91 25
255 255 150
0 255 0
100 100 100
0 0 255
0 150 255
255 0 255
0 0 150
150 150 0
255 255 0
50 50 255
255 50 50
255 0 0
80 164 235
124 231 97
174 91 25
255 255 150
0 255 0
100 100 100
0 0 255
0 150 255
255 0 255
0 0 150
150 150 0
255 255 0
50 50 255
255 50 50
255 0 0
80 164 235
124 231 97
174 91 25
255 255 150
0 255 0
100 100 100
0 0 255
0 150 255
255 0 255
0 0 150
150 150 0
255 255 0
50 50 255
255 50 50
255 0 0
80 164 235
124 231 97
174 91 25
255 255 150
0 255 0
100 100 100
0 0 255
0 150 255
255 0 255
0 0 150
150 150 0
255 255 0
50 50 255
255 50 50
255 0 0
80 164 235
124 231 97
174 91 25
255 255 150
0 255 0
100 100 100
0 0 255
0 150 255
255 0 255
0 0 150
150 150 0
255 255 0
50 50 255
255 50 50
255 0 0
80 164 235
124 231 97
174 91 25
255 255 150
0 255 0
100 100 100
0 0 255
0 150 255
255 0 255
0 0 150
150 150 0
255 255 0
50 50 255
255 50 50
255 0 0
80 164 235
124 231 97
174 91 25
255 255 150
0 255 0
100 100 100
0 0 255
0 150 255
255 0 255
0 0 150
150 150 0
255 255 0
50 50 255
255 50 50
255 0 0
80 164 235
124 231 97
174 91 25
255 255 150
0 255 0
100 100 100
0 0 255
0 150 255
255 0 255
0 0 150
150 150 0
255 255 0
50 50 255
255 50 50
255 0 0
80 164 235
124 231 97
174 91 25
255 255 150
0 255 0
100 100 100
0 0 255
0 150 255
255 0 255
0 0 150
150 150 0
255 255 0
50 50 255
255 50 50
255 0 0
80 164 235
124 231 97
174 91 25
255 255 150
0 255 0
100 100 100
0 0 255
0 150 255
255 0 255
0 0 150
150 150 0
255 255 0
50 50 255
255 50 50
255 0 0
80 164 235
124 231 97
174 91 25
255 255 150
0 255 0
100 100 100
0 0 255
0 150 255
255 0 255
0 0 150
150 150 0
255 255 0
50 50 255
255 50 50
255 0 0
80 164 235
124 231 97
174 91 25
255 255 150
0 255 0
100 100 100
0 0 255
0 150 255
255 0 255
0 0 150
150 150 0
255 255 0
50 50 255
255 50 50
255 0 0
80 164 235
124 231 97
174 91 25
255 255 150
0 255 0
100 100 100
0 0 255
0 150 255
255 0 255
0 0 150
150 150 0
255 255 0
50 50 255
255 50 50
255 0 0
80 164 235
124 231 97
174 91 25
255 255 150
0 255 0
100 100 100
0 0 255
0 150 255
255 0 255
0 0 150
150 150 0
255 255 0
50 50 255
255 50 50
255 0 0
80 164 235
124 231 97
174 91 25
255 255 150
0 255 0
100 100 100
0 0 255
0 150 255
255 0 255
0 0 150
150 150 0
255 255 0
50 50 255
255 50 50
255 0 0
80 164 235
124 231 97
174 91 25
255 255 150
0 255 0
100 100 100
0 0 255
0 150 255
255 0 255
0 0 150
150 150 0
255 255 0
50 50 255
255 50 50
255 0 0
80 164 235
124 231 97
174 91 25
255 255 150
0 255 0
100 100 100
0 0 255
0 150 255
255 0 255
0 0 150
150 150 0
255 255 0
50 50 255
255 50 50
255 0 0
80 164 235
124 231 97
174 91 25
255 255 150
0 255 0
100 100 100
0 0 255
0 150 255
255 0 255
0 0 150
150 150 0
255 255 0
50 50 255
255 50 50
255 0 0
80 164 235
124 231 97
174 91 25
255 255 150
0 255 0
100 100 100
0 0 255
0 150 255
255 0 255
0 0 150
150 150 0
255 255 0
50 50 255
255 50 50
255 0 0
80 164 235
124 231 97
174 91 25
255 255 150
0 255 0
100 100 100
0 0 255
0 150 255
255 0 255
0 0 150
150 150 0
255 255 0
50 50 255
255 50 50
255 0 0
80 164 235
124 231 97
174 91 25
255 255 150
0 255 0
100 100 100
0 0 255
0 150 255
255 0 255
0 0 150
150 150 0
255 255 0
50 50 255
255 50 50
255 0 0
80 164 235
124 231 97
174 91 25
255 255 150
0 255 0
100 100 100
0 0 255
0 150 255
255 0 255
0 0 150
150 150 0
255 255 0
50 50 255
255 50 50
255 0 0
80 164 235
124 231 97
174 91 25
255 255 150
0 255 0
100 100 100
0 0 255
0 150 255
255 0 255
0 0 150
150 150 0
255 255 0
50 50 255
255 50 50
255 0 0
80 164 235
124 231 97
174 91 25
255 255 150
0 255 0
100 100 100
0 0 255
0 150 255
255 0 255
0 0 150
150 150 0
255 255 0
50 50 255
255 50 50
255 0 0
80 164 235
124 231 97
174 91 25
255 255 150
0 255 0
100 100 100
0 0 255
0 150 255
255 0 255
0 0 150
150 150 0
255 255 0
50 50 255
255 50 50
255 0 0
80 164 235
124 231 97
174 91 25
255 255 150
0 255 0
100 100 100
0 0 255
0 150 255
255 0 255
0 0 150
150 150 0
255 255 0
50 50 255
255 50 50
255 0 0
80 164 235
124 231 97
174 91 25
255 255 150
0 255 0
100 100 100
0 0 255
0 150 255
255 0 255
0 0 150
150 150 0
255 255 0
50 50 255
255 50 50
255 0 0
80 164 235
124 231 97
174 91 25
255 255 150
0 255 0
100 100 100
0 0 255
0 150 255
255 0 255
0 0 150
150 150 0
255 255 0
50 50 255
255 50 50
255 0 0
80 164 235
124 231 97
174 91 25
255 255 150
0 255 0
100 100 100
0 0 255
0 150 255
255 0 255
0 0 150
150 150 0
255 255 0
50 50 255
255 50 50
255 0 0
80 164 235
124 231 97
174 91 25
255 255 150
0 255 0
100 100 100
0 0 255
0 150 255
255 0 255
0 0 150
150 150 0
255 255 0
50 50 255
255 50 50
255 0 0
80 164 235
124 231 97
174 91 25
255 255 150
0 255 0
100 100 100
0 0 255
0 150 255
255 0 255
0 0 150
150 150 0
255 255 0
50 50 255
255 50 50
255 0 0
80 164 235
124 231 97
174 91 25
255 255 150
0 255 0
100 100 100
0 0 255
0 150 255
255 0 255
0 0 150
150 150 0
255 255 0
50 50 255
255 50 50
255 0 0
80 164 235
124 231 97
174 91 25
255 255 150
0 255 0
100 100 100
0 0 255
0 150 255
255 0 255
0 0 150
150 150 0
255 255 0
50 50 255
255 50 50
255 0 0
80 164 235
124 231 97
174 91 25
255 255 150
0 255 0
100 100 100
0 0 255
0 150 255
255 0 255
0 0 150
150 150 0
255 255 0
50 50 255
255 50 50
255 0 0
80 164 235
124 231 97
174 91 25
255 255 150
0 255 0
100 100 100
0 0 255
0 150 255
255 0 255
0 0 150
150 150 0
255 255 0
50 50 255
255 50 50
255 0 0
80 164 235
124 231 97
174 91 25